<?xml version="1.0" encoding="utf-8"?>
<?xml-stylesheet type="text/xsl" href="rss1.xsl"?>
<rss version="2.0" xmlns:atom="http://www.w3.org/2005/Atom" xmlns:content="http://purl.org/rss/1.0/modules/content/" xmlns:dc="http://purl.org/dc/elements/1.1/" xmlns:media="http://search.yahoo.com/mrss/">
<channel>
 <title>sharemania</title>
 <link>http://www.sharemania.us/</link>
 <atom:link href="http://www.gettyimg.com/" rel="self" type="application/rss+xml" />

 
                <item>
                <title><![CDATA[【Music Videos】P!nk - Try [1080p.AM.WEB|Dolby Atmos]]]></title>
                <link><![CDATA[https://sharemania.us/threads/p-nk-try-1080p-am-web-dolby-atmos.283178/]]></link>
                <description><![CDATA[<article>
				<blockquote class="messageText SelectQuoteContainer ugc baseHtml">
					
					<img src="https://thumbs2.imgbox.com/cf/3c/lom1eyIU_t.jpg" class="bbCodeImage LbImage" alt="[​IMG]" data-url="https://thumbs2.imgbox.com/cf/3c/lom1eyIU_t.jpg" style=""><br>
<br>
<b>Artist: P!nk<br>
Format Audio: <br>
Dolby Atmos<br>
[EAC3-JOC, 16bit/48kHz, 768Kbps] 5.1 Surround<br>
<br>
<br>
TRACKLIST:<br>
22. Try<br>
<br>
<br>
</b><br>
<br>


<div class="bbCodeBlock bbCodeCode">
	<div class="type">Code:</div>
	<pre>General
Complete name               : 22 Try 'MV - Dolby Atmos'.mp4
Format                      : MPEG-4
Format profile              : Base Media
Codec ID                    : isom (isom/dby1/iso2/avc1/mp41)
File size                   : 643 MiB
Duration                    : 4 min 14 s
Overall bit rate            : 21.2 Mb/s
Frame rate                  : 23.976 FPS
Movie name                  : Try
Album                       : The Truth About Love (Fan Edition)
Album/Performer             : P!nk
Part/Position               : 1
Part/Total                  : 1
Track name/Position         : 22
Track name/Total            : 27
Performer                   : P!nk
Genre                       : Pop
ContentType                 : Music Video
Recorded date               : 2012-10-10 07:00:00 UTC
Encoded date                : 2024-03-01 11:57:54 UTC
Tagged date                 : 2024-03-01 11:57:54 UTC
Copyright                   : ℗ (C) 2012 RCA Records, a division of Sony Music Entertainment
Cover                       : Yes
Comment                     : atmos mix by: andammm777 on sharemania.us
Rating                      : None
AlbumTitleID                : 4488522
AppleStoreCatalogID         : 576949417
GenreID                     : 1614
AppleStoreCountry           : Indonesia
WWW                         : https://sharemania.us/
ENCODEDBY                   : andammm777

Video
ID                          : 1
Format                      : AVC
Format/Info                 : Advanced Video Codec
Format profile              : High@L4
Format settings             : 2 Ref Frames
Format settings, CABAC      : No
Format settings, Reference  : 2 frames
Codec ID                    : avc1
Codec ID/Info               : Advanced Video Coding
Duration                    : 4 min 14 s
Bit rate                    : 20.4 Mb/s
Width                       : 1 920 pixels
Height                      : 1 080 pixels
Display aspect ratio        : 16:9
Frame rate mode             : Constant
Frame rate                  : 23.976 (24000/1001) FPS
Color space                 : YUV
Chroma subsampling          : 4:2:0
Bit depth                   : 8 bits
Scan type                   : Progressive
Bits/(Pixel*Frame)          : 0.411
Stream size                 : 620 MiB (96%)
Encoded date                : 2024-03-01 11:57:54 UTC
Tagged date                 : 2025-06-23 08:37:40 UTC
Color range                 : Limited
Color primaries             : BT.709
Transfer characteristics    : BT.709
Matrix coefficients         : BT.709
Codec configuration box     : avcC

Audio
ID                          : 2
Format                      : E-AC-3 JOC
Format/Info                 : Enhanced AC-3 with Joint Object Coding
Commercial name             : Dolby Digital Plus with Dolby Atmos
Codec ID                    : ec-3
Duration                    : 4 min 14 s
Bit rate mode               : Constant
Bit rate                    : 768 kb/s
Channel(s)                  : 6 channels
Channel layout              : L R C LFE Ls Rs
Sampling rate               : 48.0 kHz
Frame rate                  : 31.250 FPS (1536 SPF)
Compression mode            : Lossy
Stream size                 : 23.3 MiB (4%)
Service kind                : Complete Main
Default                     : Yes
Alternate group             : 1
Encoded date                : 2024-03-01 11:58:15 UTC
Tagged date                 : 2025-06-23 08:37:40 UTC
Complexity index            : Not present / 16
Number of dynamic objects   : 15
Bed channel count           : 1 channel
Bed channel configuration   : LFE
Dialog Normalization        : -18 dB
compr                       : -0.28 dB
dmixmod                     : Lo/Ro
ltrtcmixlev                 : -3.0 dB
ltrtsurmixlev               : -3.0 dB
lorocmixlev                 : -3.0 dB
lorosurmixlev               : -3.0 dB
dialnorm_Average            : -18 dB
dialnorm_Minimum            : -18 dB
dialnorm_Maximum            : -18 dB

Other
ID                          : 3
Type                        : Time code
Format                      : QuickTime TC
Duration                    : 4 min 14 s
Frame rate                  : 23.976 (24000/1001) FPS
Time code of first frame    : 01:00:00:00
Time code of last frame     : 01:04:14:03
Time code, stripped         : Yes
Language                    : English
Default                     : No
Encoded date                : 2025-09-03 09:50:48 UTC
Tagged date                 : 2025-09-03 09:50:48 UTC



</pre>
</div><br>
<br>
PASSWORD ZIP: sharemania<br>
link<br>




<div class="bbCodeBlock bbCodeVfcHH HiddenContent">
	<div class="attribution type">Hidden Content:</div>
	<blockquote>You must either reply or click 'Like' to see the hidden information contained here.</blockquote>
</div>Audio Only : <a href="https://sharemania.us/threads/p-nk-try-spatial-mix-eac3-joc-16bit-48khz-768kbps-5-1-surround.277143/" class="internalLink">&gt;&gt;&gt;HERE&lt;&lt;&lt;</a>
					<div class="messageTextEndMarker">&nbsp;</div>
				</blockquote>
			</article>]]></description>
                <author><![CDATA[andammm777]]></author>
                </item>

                </channel></rss>